# xmcd
#
# Track frame offsets:
#	150
#	16300
#	30688
#	43400
#	62923
#	87297
#	106210
#	122771
#	140905
#	159045
#
# Disc length: 2321 seconds
#
# Revision: 0
# Processed by: cddbd v1.5.2PL0 Copyright (c) Steve Scherf et al.
# Submitted via: dBpowerAMP V4.0
#
DISCID=84090f0a
DTITLE=Mariette Croteau - Prends ton chapeau, tes bottes de cowboy
DYEAR=1900
DGENRE=Country
TTITLE0=Prends ton chapeau, tes bottes de cowboy
TTITLE1=On se calme
TTITLE2=Ces reves encore
TTITLE3=Je veux du soleil dans ma vie
TTITLE4=Veux-tu etre mon ami
TTITLE5=Tout est fini, tout est perdu
TTITLE6=Reviens vite a la maison
TTITLE7=Mais, ou est passe l'amour
TTITLE8=J'attends qu mon coeur change de chanson
TTITLE9=L'amour d'un samedi soir
EXTD=
EXTT0=
EXTT1=
EXTT2=
EXTT3=
EXTT4=
EXTT5=
EXTT6=
EXTT7=
EXTT8=
EXTT9=
PLAYORDER=
